<svg width="25" height="24" viewBox="0 0 25 24" fill="none" xmlns="http://www.w3.org/2000/svg">
<g id="Group">
<path id="Vector" fill-rule="evenodd" clip-rule="evenodd" d="M5.56407 0H0V2.32223H3.73647L6.95277 17.0429H6.9667V17.4167H22.0612V17.1288L24.6075 5.91124L25 4.64447H6.56611L5.90428 1.61279L5.56407 0ZM22.0461 6.9667H7.07352L8.84887 15.0945H20.2011L22.0461 6.9667Z" fill="#032E3F"/>
<path id="Vector_2" d="M10.4502 23.2223C11.0661 23.2223 11.6567 22.9777 12.0922 22.5422C12.5277 22.1067 12.7724 21.516 12.7724 20.9001C12.7724 20.2842 12.5277 19.6936 12.0922 19.258C11.6567 18.8225 11.0661 18.5779 10.4502 18.5779C9.83427 18.5779 9.2436 18.8225 8.8081 19.258C8.37259 19.6936 8.12793 20.2842 8.12793 20.9001C8.12793 21.516 8.37259 22.1067 8.8081 22.5422C9.2436 22.9777 9.83427 23.2223 10.4502 23.2223ZM20.9002 20.9001C20.9002 21.516 20.6555 22.1067 20.22 22.5422C19.7845 22.9777 19.1939 23.2223 18.578 23.2223C17.9621 23.2223 17.3714 22.9777 16.9359 22.5422C16.5004 22.1067 16.2557 21.516 16.2557 20.9001C16.2557 20.2842 16.5004 19.6936 16.9359 19.258C17.3714 18.8225 17.9621 18.5779 18.578 18.5779C19.1939 18.5779 19.7845 18.8225 20.22 19.258C20.6555 19.6936 20.9002 20.2842 20.9002 20.9001Z" fill="#032E3F"/>
</g>
</svg>
