<svg width="73" height="39" viewBox="0 0 73 39" fill="none" xmlns="http://www.w3.org/2000/svg">
<g id="design-award 1" clip-path="url(#clip0_102_203)">
<g id="Clip path group">
<mask id="mask0_102_203" style="mask-type:luminance" maskUnits="userSpaceOnUse" x="0" y="0" width="73" height="39">
<g id="clip0_1919_12611">
<path id="Vector" d="M0.384277 0.5H72.6159V38.5H0.384277V0.5Z" fill="white"/>
</g>
</mask>
<g mask="url(#mask0_102_203)">
<g id="Group">
<path id="Vector_2" d="M72.6159 0.5H0.384277V38.5H72.6159V0.5Z" fill="white"/>
<path id="Vector_3" d="M35.6181 2.31006H2.14648V36.6931H35.6181V2.31006Z" fill="#EC1D26"/>
<path id="Vector_4" d="M9.20597 29.4568H14.4812V16.7849H9.20597V29.4568ZM11.837 9.18726C11.2454 9.18726 10.666 9.36717 10.1734 9.7053C9.67908 10.0457 9.29546 10.5259 9.07073 11.0857C8.84434 11.6484 8.78533 12.2656 8.90091 12.8616C9.01489 13.4564 9.29976 14.0042 9.72005 14.4367C10.1388 14.8671 10.6729 15.1595 11.253 15.2781C11.834 15.3968 12.4364 15.3363 12.9828 15.1036C13.5299 14.871 13.9971 14.4762 14.3267 13.9714C14.6013 13.5491 14.7699 13.0657 14.8181 12.563C14.8663 12.0603 14.7926 11.5533 14.6034 11.0857C14.4535 10.7135 14.2329 10.3744 13.954 10.0876C13.6772 9.80269 13.347 9.57601 12.9828 9.42068C12.6203 9.26673 12.2303 9.18737 11.837 9.18726ZM23.2881 9.54632V14.978H28.5771V9.54632H23.2881ZM16.2409 29.4568H21.5291V9.54632H16.2409V29.4568ZM23.2881 22.2174H28.5771V16.7857H23.2881V22.2174Z" fill="white"/>
<path id="Vector_5" d="M70.8506 2.31006H37.3789V36.6931H70.8513L70.8506 2.31006Z" fill="#EC1D26"/>
<path id="Vector_6" d="M43.2117 9.57591C44.8269 9.57591 46.0302 10.2731 46.0302 12.1847C46.0302 13.9948 44.7908 14.7501 43.2117 14.7501H41.9061V9.57591H43.2117ZM42.8697 13.9575H43.131C44.1906 13.9575 45.039 13.5039 45.039 12.1762C45.039 10.7849 44.1899 10.391 43.1302 10.391H42.869V13.9568L42.8697 13.9575ZM46.9339 9.57591H49.7586V10.4367H47.8914V11.6806H49.6149V12.5197H47.8921V13.8815H49.7871V14.7501H46.9416L46.9339 9.57591ZM53.3302 10.5166C53.0256 10.3743 52.6946 10.2985 52.359 10.294C51.8526 10.294 51.5314 10.5251 51.5314 10.8819C51.5314 11.2386 51.6881 11.3991 52.3928 11.6861C53.2803 12.0288 53.6561 12.4717 53.6561 13.2355C53.6561 14.2305 52.9599 14.8439 51.858 14.8439C51.427 14.8471 50.9991 14.7717 50.5947 14.6214L50.683 13.7102C51.0292 13.8984 51.4156 13.9988 51.8088 14.0025C52.3152 14.0025 52.6771 13.7714 52.6771 13.3565C52.6771 12.9408 52.4788 12.7555 51.7534 12.4662C50.9082 12.1335 50.5447 11.7179 50.5447 10.9835C50.5447 10.0637 51.234 9.48672 52.2545 9.48672C52.6464 9.47897 53.0375 9.54178 53.4086 9.67285L53.3302 10.5166ZM54.5198 9.57591H55.4826V14.7501H54.519L54.5198 9.57591ZM60.3467 10.6515C59.953 10.4559 59.5192 10.3566 59.0803 10.3615C58.0676 10.3615 57.4129 11.0509 57.4129 12.1475C57.4129 13.2441 58.0076 13.9405 59.0596 13.9405C59.2494 13.9451 59.4384 13.9203 59.6205 13.8684V12.5787H58.5955V11.7613H60.5296V14.5275C60.0144 14.713 59.4705 14.8039 58.9236 14.7959C57.4597 14.7959 56.3709 13.7877 56.3709 12.1359C56.3709 10.5275 57.4159 9.51929 59.0803 9.51929C59.5306 9.50689 59.9794 9.57358 60.4066 9.71783L60.3467 10.6508V10.6515ZM64.6937 9.57591H65.5635V14.7501H64.3363L63.1122 12.2142C62.864 11.7024 62.5513 10.9617 62.4207 10.6213C62.4414 10.9408 62.4545 11.89 62.4545 12.3321V14.7455H61.5846V9.57591H62.8717L64.0751 12.1328C64.2526 12.5027 64.5822 13.2805 64.7252 13.645H64.7382C64.7123 13.0125 64.6985 12.3796 64.6967 11.7466L64.6937 9.57513V9.57591ZM46.2339 22.1136H45.1911L44.7762 20.917H42.7844L42.3664 22.1128H41.3667L43.2409 16.9386H44.3267L46.2346 22.1128L46.2339 22.1136ZM44.1146 18.9247C43.9952 18.5372 43.8855 18.1467 43.7857 17.7537H43.7726C43.705 18.0212 43.5267 18.6145 43.4253 18.9247L43.0288 20.1314H44.5118L44.1146 18.9247ZM49.6895 18.6486C49.6187 18.3275 49.5595 18.0039 49.512 17.6784H49.4966C49.4628 17.9599 49.3867 18.4051 49.3398 18.6486L48.6298 22.1128H47.4111L46.1056 16.9386H47.1368L47.8284 20.0375C47.8622 20.2066 48.0135 20.9542 48.0527 21.3032H48.0658C48.1157 20.9542 48.251 20.2066 48.2848 20.0375L48.9088 16.9378H50.1882L50.8429 20.0375C50.8851 20.2144 51.0158 20.9627 51.0626 21.3032H51.0757C51.1249 20.9619 51.2601 20.2306 51.3024 20.0375L51.9863 16.9378H52.9422L51.6651 22.1128H50.4548L49.6895 18.6486ZM57.6242 22.1136H56.5791L56.1619 20.917H54.1724L53.7552 22.1128H52.7639L54.6373 16.9386H55.7231L57.6234 22.1128L57.6242 22.1136ZM55.5033 18.9247C55.3842 18.5372 55.2748 18.1467 55.1752 17.7537H55.1622C55.0945 18.0212 54.9163 18.6145 54.8125 18.9247L54.4183 20.1314H55.9037L55.5033 18.9247ZM58.265 16.9386H59.6382C60.8131 16.9386 61.5931 17.2062 61.5931 18.295C61.6092 18.5904 61.5155 18.8813 61.3303 19.1093C61.1465 19.3351 60.8838 19.4812 60.5964 19.5172C60.9299 19.6141 61.0529 19.8235 61.2043 20.2089L61.9435 22.0857H60.8907L60.369 20.6168C60.1707 20.0802 60.0824 19.9359 59.4945 19.9359H59.2333V22.081H58.2681L58.265 16.9386ZM59.231 19.1612H59.5107C60.2699 19.1612 60.6118 18.9542 60.6118 18.4346C60.6118 17.8715 60.2022 17.7529 59.5107 17.7529H59.231V19.1612ZM64.0758 16.9386C65.6895 16.9386 66.8952 17.635 66.8952 19.5474C66.8952 21.3567 65.655 22.1128 64.0758 22.1128H62.7711V16.9386H64.0758ZM63.7339 21.3195H63.9952C65.0571 21.3195 65.9032 20.8774 65.9032 19.5358C65.9032 18.1422 65.0548 17.7506 63.9952 17.7506H63.7339V21.3195ZM41.8523 24.7325C42.3147 24.528 42.8153 24.4264 43.32 24.4347C44.2275 24.4347 45.0029 24.9039 45.0029 25.8957C45.0029 26.534 44.7132 27.1055 43.8041 27.9819C43.4998 28.2766 43.1725 28.5449 42.8259 28.7861C43.2701 28.7861 43.8464 28.7651 44.2829 28.7651H45.1066V29.5531H41.7524V28.7326C43.3316 27.4165 43.9655 26.7302 43.9655 26.0059C43.9655 25.47 43.5767 25.2311 43.0834 25.2311C42.6838 25.2397 42.2919 25.3575 41.9507 25.5716L41.8523 24.7325ZM49.3637 27.0435C49.3637 28.6791 48.8411 29.6709 47.5748 29.6709C46.3092 29.6709 45.7636 28.6922 45.7636 27.1024C45.7636 25.3009 46.3476 24.4455 47.6086 24.4455C48.7704 24.4347 49.3637 25.3033 49.3637 27.0435ZM46.7526 27.014C46.7526 28.2874 47.0423 28.9257 47.5725 28.9257C48.1027 28.9257 48.3739 28.2874 48.3739 27.0644C48.3739 25.8422 48.0865 25.1877 47.5648 25.1877C47.0423 25.1877 46.7556 25.7942 46.7556 27.0032L46.7526 27.014ZM50.0199 24.7325C50.4812 24.528 50.9808 24.4265 51.4845 24.4347C52.3928 24.4347 53.1673 24.9039 53.1673 25.8957C53.1673 26.534 52.8784 27.1055 51.9694 27.9819C51.6651 28.2766 51.3377 28.5457 50.9912 28.7861C51.4346 28.7861 52.0116 28.7651 52.4496 28.7651H53.2749V29.5531H49.9208V28.7326C51.4868 27.4165 52.1315 26.7302 52.1315 26.0059C52.1315 25.47 51.745 25.2311 51.2517 25.2311C50.8499 25.24 50.4578 25.3579 50.1167 25.5724L50.0199 24.7325ZM54.7503 27.3522V26.5984H54.9877C55.8207 26.5984 56.2925 26.3758 56.2925 25.8771C56.2925 25.4273 55.9114 25.1799 55.3474 25.1799C54.9541 25.1839 54.5665 25.2756 54.2124 25.4483L54.1502 24.6441C54.5802 24.4928 55.0334 24.4193 55.4887 24.4269C56.5953 24.4269 57.2638 24.9202 57.2638 25.743C57.2638 26.4161 56.7989 26.8155 56.0943 26.9179V26.9388C56.8335 27.0164 57.3268 27.4755 57.3268 28.175C57.3268 29.0862 56.4892 29.6523 55.2982 29.6523C54.8614 29.6571 54.4264 29.5938 54.0088 29.4646L54.0587 28.617C54.4352 28.7845 54.8387 28.8753 55.249 28.8853C55.8699 28.8853 56.3271 28.655 56.3271 28.1106C56.3271 27.5662 55.8414 27.3436 54.9954 27.3436C54.9378 27.3436 54.834 27.3436 54.7495 27.3514L54.7503 27.3522Z" fill="white"/>
</g>
</g>
</g>
</g>
<defs>
<clipPath id="clip0_102_203">
<rect width="73" height="38" fill="white" transform="translate(0 0.5)"/>
</clipPath>
</defs>
</svg>
