<svg width="20" height="21" viewBox="0 0 20 21" fill="none" xmlns="http://www.w3.org/2000/svg">
<path id="Vector" d="M18.851 0.463158H1.17533C0.885626 0.463158 0.60779 0.57844 0.402941 0.783645C0.198091 0.988849 0.0830078 1.26717 0.0830078 1.55737V19.2637C0.0830078 19.5539 0.198091 19.8322 0.402941 20.0374C0.60779 20.2426 0.885626 20.3579 1.17533 20.3579H10.6884V12.6487H8.10659V9.66447H10.6884V7.42632C10.635 6.90085 10.6969 6.37003 10.8699 5.87108C11.0429 5.37213 11.3227 4.91714 11.6899 4.53801C12.057 4.15888 12.5025 3.8648 12.995 3.67639C13.4876 3.48799 14.0154 3.40982 14.5413 3.44737C15.3142 3.4426 16.0868 3.48246 16.8551 3.56674V6.25253H15.2762C14.025 6.25253 13.7867 6.84937 13.7867 7.71479V9.63463H16.7657L16.3784 12.6188H13.7867V20.3579H18.851C18.9945 20.3579 19.1365 20.3296 19.2691 20.2746C19.4016 20.2196 19.522 20.139 19.6234 20.0374C19.7249 19.9358 19.8053 19.8152 19.8602 19.6824C19.9151 19.5497 19.9434 19.4074 19.9434 19.2637V1.55737C19.9434 1.41367 19.9151 1.27139 19.8602 1.13863C19.8053 1.00588 19.7249 0.885251 19.6234 0.783645C19.522 0.682038 19.4016 0.601439 19.2691 0.54645C19.1365 0.49146 18.9945 0.463158 18.851 0.463158Z" fill="#FCFAF2"/>
</svg>
