<svg width="65" height="64" viewBox="0 0 65 64" fill="none" xmlns="http://www.w3.org/2000/svg">
<g id="Health-And-Fitness-Monitoring" clip-path="url(#clip0_122_226)">
<g id="Group">
<g id="Group_2">
<g id="Performance_Widget_00000181809066411676423490000004388920298691476900_">
<g id="Group_3">
<g id="Group_4">
<path id="Vector" d="M24.2905 43.525C22.1857 46.3688 19.3463 50.8202 17.0731 53.5429C14.4065 56.7497 11.1393 59.0057 8.29986 62.0655C7.05951 63.4095 5.41291 63.7164 4.03859 62.9385C2.64265 62.1519 2.11107 60.8813 2.40928 59.36C2.53029 58.7118 2.9106 58.0073 3.39032 57.5579C9.52293 52.5187 12.8248 49.7873 16.5415 42.2328C16.723 41.8612 18.348 38.071 18.8537 36.4546M43.7903 6.40959C43.7903 9.59475 41.2145 12.1835 38.0337 12.1835C34.8529 12.1835 32.2771 9.59475 32.2771 6.40959C32.2771 3.22012 34.8529 0.640015 38.0337 0.640015C41.2145 0.640015 43.7903 3.22012 43.7903 6.40959ZM31.0973 48.9489C29.2691 47.3585 27.5491 45.8718 25.842 44.3764C24.5325 43.2312 23.2186 42.0945 21.9437 40.919C18.2313 37.4962 18.3134 34.9636 20.0292 31.5191C21.6239 28.321 22.8945 24.9544 24.2991 21.6568C24.3337 21.5704 24.2905 21.4537 24.2818 21.2636C22.1771 21.2808 20.2539 21.4321 19.2642 23.822C18.7326 25.1099 17.8596 26.2682 17.0644 27.4307C15.9581 29.0557 14.2121 29.5225 12.8507 28.6495C11.4504 27.7549 11.2171 26.3546 12.237 24.4962C13.5163 22.1668 14.856 19.8633 16.1569 17.5425C16.9305 16.1638 18.0801 15.3946 19.6489 15.1742C22.8643 14.7333 26.0753 14.1629 29.3037 13.8128C31.8492 13.5405 34.3343 14.1413 36.4303 15.5891C38.9586 17.3394 41.3139 19.3533 43.8768 21.3586C45.2035 19.4657 46.6254 17.4345 48.0516 15.4075C49.292 13.6399 50.8737 13.1386 52.3129 14.0505C53.8255 15.0056 54.154 16.7948 52.9698 18.6402C51.0336 21.6525 49.024 24.6259 46.9668 27.5561C45.787 29.2329 44.3997 29.4836 42.5629 28.4636C40.4798 27.314 38.4313 26.0996 36.1624 24.7901C33.7897 28.7878 31.456 32.7336 29.0185 36.8479C31.3911 39.2076 33.7379 41.5284 36.0716 43.8621C38.6042 46.3947 38.9024 48.534 37.1564 51.6068C35.3585 54.7703 33.5693 57.9382 31.7542 61.0931C30.5354 63.2151 28.6425 63.9022 26.8878 62.9212C25.0684 61.8969 24.7183 59.87 25.9932 57.6875C27.6571 54.8308 29.3296 51.9741 31.0973 48.9489Z" stroke="#FCFAF2" stroke-width="2" stroke-miterlimit="10" stroke-linecap="round" stroke-linejoin="round"/>
</g>
</g>
</g>
</g>
<path id="Vector_2" d="M62.3076 41.9777C62.5401 41.2905 62.6709 40.6123 62.6709 39.9572C62.6709 33.3579 54.5807 31.2659 52.6753 39.3002C50.7713 31.2659 42.6797 33.3579 42.6797 39.9572C42.6797 40.6122 42.8112 41.2904 43.0435 41.9771M42.6797 44.8432H47.8956L49.1985 43.0551L50.9376 45.7359L53.1101 41.2669L54.8491 47.5254L56.1521 44.8432H62.6709M46.6061 47.5261C49.4056 50.6788 52.6753 53.1106 52.6753 53.1106C52.6753 53.1106 55.9456 50.6783 58.7453 47.5264" stroke="#FCFAF2" stroke-width="2" stroke-miterlimit="10" stroke-linecap="round" stroke-linejoin="round"/>
</g>
</g>
<defs>
<clipPath id="clip0_122_226">
<rect width="64" height="64" fill="white" transform="translate(0.5)"/>
</clipPath>
</defs>
</svg>
