<svg width="20" height="21" viewBox="0 0 20 21" fill="none" xmlns="http://www.w3.org/2000/svg">
<path id="Vector" d="M11.0346 0.264377C11.7592 0.261592 12.4839 0.268887 13.2083 0.286261L13.401 0.293224C13.6234 0.301182 13.8428 0.31113 14.108 0.323066C15.1646 0.372803 15.8855 0.539919 16.518 0.785619C17.1734 1.03828 17.7255 1.38047 18.2777 1.93355C18.7825 2.43052 19.1732 3.03168 19.4226 3.69522C19.6679 4.32887 19.8347 5.05205 19.8844 6.11045C19.8963 6.37505 19.9062 6.59588 19.9142 6.8187L19.9201 7.01168C19.9378 7.73703 19.9454 8.4626 19.943 9.18816L19.944 9.93024V11.2333C19.9464 11.9592 19.9388 12.6851 19.9211 13.4108L19.9152 13.6038C19.9072 13.8266 19.8973 14.0465 19.8854 14.3121C19.8357 15.3705 19.6669 16.0926 19.4226 16.7263C19.174 17.3905 18.7832 17.9922 18.2777 18.489C17.7811 18.9946 17.1807 19.386 16.518 19.6359C15.8855 19.8816 15.1646 20.0487 14.108 20.0984C13.8428 20.1104 13.6234 20.1203 13.401 20.1283L13.2083 20.1342C12.4839 20.1519 11.7592 20.1596 11.0346 20.1571L10.2938 20.1581H8.99394C8.26929 20.1606 7.54465 20.1529 6.82022 20.1352L6.62757 20.1293C6.39184 20.1207 6.15616 20.1108 5.92054 20.0994C4.86397 20.0497 4.14304 19.8806 3.50949 19.6359C2.84684 19.3865 2.24661 18.9951 1.75086 18.489C1.24546 17.9919 0.854386 17.3903 0.604916 16.7263C0.35964 16.0926 0.192813 15.3705 0.143162 14.3121C0.132103 14.076 0.122172 13.8399 0.113371 13.6038L0.108406 13.4108C0.0900986 12.6851 0.0818226 11.9592 0.0835808 11.2333V9.18816C0.0808093 8.4626 0.0880922 7.73704 0.105427 7.01168L0.112378 6.8187C0.120323 6.59588 0.130253 6.37505 0.142169 6.11045C0.19182 5.05105 0.358647 4.32987 0.603922 3.69522C0.85354 3.03136 1.24538 2.43036 1.75185 1.93454C2.24726 1.42797 2.84711 1.03587 3.50949 0.785619C4.14304 0.539919 4.86298 0.372803 5.92054 0.323066L6.62757 0.293224L6.82022 0.288251C7.54431 0.269921 8.26862 0.26163 8.99294 0.263382L11.0346 0.264377ZM10.0138 5.23806C9.3559 5.22874 8.70274 5.35049 8.09225 5.59623C7.48176 5.84198 6.92612 6.20682 6.45761 6.66954C5.98911 7.13227 5.61708 7.68366 5.36315 8.29167C5.10922 8.89968 4.97846 9.55218 4.97846 10.2112C4.97846 10.8703 5.10922 11.5228 5.36315 12.1308C5.61708 12.7388 5.98911 13.2902 6.45761 13.753C6.92612 14.2157 7.48176 14.5805 8.09225 14.8263C8.70274 15.072 9.3559 15.1938 10.0138 15.1844C11.3306 15.1844 12.5935 14.6604 13.5246 13.7277C14.4558 12.7949 14.9789 11.5299 14.9789 10.2108C14.9789 8.89165 14.4558 7.62657 13.5246 6.69383C12.5935 5.76108 11.3306 5.23806 10.0138 5.23806ZM10.0138 7.22754C10.4095 7.22023 10.8027 7.29199 11.1704 7.43863C11.5382 7.58526 11.873 7.80383 12.1555 8.08156C12.4379 8.3593 12.6623 8.69063 12.8155 9.0562C12.9687 9.42178 13.0476 9.81427 13.0477 10.2107C13.0478 10.6072 12.969 10.9997 12.8159 11.3654C12.6628 11.731 12.4386 12.0624 12.1562 12.3402C11.8738 12.618 11.539 12.8367 11.1714 12.9835C10.8037 13.1302 10.4105 13.2021 10.0148 13.195C9.22466 13.195 8.46693 12.8806 7.90825 12.3209C7.34957 11.7613 7.0357 11.0022 7.0357 10.2108C7.0357 9.41929 7.34957 8.66024 7.90825 8.1006C8.46693 7.54095 9.22466 7.22654 10.0148 7.22654L10.0138 7.22754ZM15.2271 3.74596C14.9068 3.7588 14.6038 3.89532 14.3817 4.12691C14.1595 4.35851 14.0355 4.66722 14.0355 4.98838C14.0355 5.30955 14.1595 5.61826 14.3817 5.84985C14.6038 6.08145 14.9068 6.21797 15.2271 6.23081C15.5563 6.23081 15.872 6.09981 16.1048 5.86662C16.3376 5.63343 16.4684 5.31716 16.4684 4.98739C16.4684 4.65761 16.3376 4.34134 16.1048 4.10816C15.872 3.87497 15.5563 3.74397 15.2271 3.74397V3.74596Z" fill="#FCFAF2"/>
</svg>
