<svg width="65" height="64" viewBox="0 0 65 64" fill="none" xmlns="http://www.w3.org/2000/svg">
<g id="LIGHTWEIGHT-2" clip-path="url(#clip0_122_213)">
<g id="Group">
<g id="Lightweight_Bezel_00000175285956582385752690000013768574669364095367_">
<g id="Group_2">
<g id="Group_3">
<path id="Vector" d="M19.5638 36.539C17.2527 34.6808 14.6121 32.4254 13.7998 31.6131C12.5211 30.2064 12.1375 28.7998 11.8817 26.7538C11.4981 28.7998 11.4981 27.6489 10.0914 28.0325C8.68481 28.4162 8.68481 28.6719 8.55693 29.3113C8.42906 29.6949 6.63879 24.8356 6.51092 22.1502C4.72066 25.8586 4.59278 25.6029 3.82553 26.2423C3.4419 26.498 3.9534 23.5569 4.33703 20.8715C4.72066 19.4649 4.33703 17.0352 5.48791 15.3728C6.51092 13.9662 10.2193 13.5826 11.2423 13.5826C12.649 13.5826 13.672 13.4547 14.0556 13.3268C14.695 13.1989 18.1476 13.1989 18.9149 13.3268C18.0197 14.222 16.3574 15.7565 15.0786 16.268C18.0197 16.268 17.6361 16.3958 18.9149 16.0122C20.0657 15.6286 22.1118 14.6056 20.833 16.1401C19.6821 17.6746 22.7511 18.5697 25.1808 18.5697C27.6104 18.5697 27.6104 18.1861 25.3087 19.5927C23.0069 20.9994 22.6233 22.406 22.3675 22.7896C22.1118 23.1733 25.8202 21.5109 27.2268 21.5109C28.6334 21.5109 30.4237 22.6617 31.7024 22.6617C32.9812 22.7896 31.9582 22.9175 30.0401 23.3011C27.994 23.8126 25.8202 25.8586 25.3087 26.1144C27.8662 25.7308 31.0631 24.8356 33.237 24.5799C35.283 24.3241 38.6077 25.6029 40.9095 26.1144C43.467 26.6259 47.4312 26.6259 50.6281 27.1374C53.8249 27.521 62.6484 29.8228 63.5435 30.9737C64.4386 32.1246 63.4156 34.6821 60.7302 36.6002C58.1727 38.5183 57.2776 39.6692 55.9988 39.5413C54.7201 39.4135 50.7559 37.4953 49.2214 37.6232C47.6869 37.7511 53.3135 40.0529 54.0807 40.5644C54.9758 41.0759 53.9528 41.4595 51.0117 41.2037C49.8077 41.2037 47.4813 41.2824 45.0337 41.2546M39.375 28.6719C40.0144 28.2883 42.6998 27.3932 43.2113 26.8817M43.0834 30.3343C44.1064 29.6949 47.1754 27.1374 47.1754 27.1374M25.2122 30.0207C9.96881 24.0642 3.31935 12.8736 1.14014 9.36267M63.7993 32.1246C55.8511 33.67 48.7102 34.073 42.5034 33.6604" stroke="#FCFAF2" stroke-width="2" stroke-miterlimit="10" stroke-linecap="round" stroke-linejoin="round"/>
</g>
</g>
</g>
<g id="Group_4">
<g id="Stainless_Steel_Watch_Case_x5F_Design_x5F_Real_Watch_Hands_00000128475275152109340830000005338042185970418361_">
<g id="Group_5">
<g id="Group_6">
<path id="Vector_2" d="M45.0336 41.4339C45.0336 48.7267 39.12 54.6373 31.8303 54.6373C24.536 54.6373 18.627 48.7267 18.627 41.4339C18.627 34.1412 24.536 28.2306 31.8303 28.2306C39.12 28.2306 45.0336 34.1412 45.0336 41.4339Z" stroke="#FCFAF2" stroke-width="2" stroke-miterlimit="10" stroke-linecap="round" stroke-linejoin="round"/>
</g>
</g>
</g>
<path id="Vector_3" d="M42.0367 41.4085C42.0367 47.0467 37.4653 51.6158 31.8294 51.6158C26.1912 51.6158 21.6221 47.0467 21.6221 41.4085C21.6221 35.7703 26.1912 31.2012 31.8294 31.2012C37.4653 31.2012 42.0367 35.7703 42.0367 41.4085Z" stroke="#FCFAF2" stroke-width="2" stroke-miterlimit="10" stroke-linecap="round" stroke-linejoin="round"/>
<path id="Vector_4" d="M27.2393 38.7537L31.8374 41.4085L38.6636 37.5031" stroke="#FCFAF2" stroke-width="2" stroke-miterlimit="10" stroke-linecap="round" stroke-linejoin="round"/>
</g>
</g>
</g>
<defs>
<clipPath id="clip0_122_213">
<rect width="64" height="64" fill="white" transform="translate(0.5)"/>
</clipPath>
</defs>
</svg>
