<svg width="65" height="64" viewBox="0 0 65 64" fill="none" xmlns="http://www.w3.org/2000/svg">
<g id="Garmin_Connect" clip-path="url(#clip0_122_238)">
<g id="Download_Garmin_Connect_App_00000163049594677685525380000007197063673324513169_">
<g id="Group">
<g id="Group_2">
<path id="Vector" d="M41.6533 37.9476C39.7004 40.6234 36.5364 42.3038 33.0582 42.3038C28.2554 42.3038 24.1565 39.0641 23.0855 34.4203L22.9946 33.7504M42.0053 26.2907C40.1583 23.4787 36.964 21.696 33.3837 21.696C28.5657 21.696 24.3647 24.9471 23.1574 29.6175L23.0022 30.4123" stroke="#FCFAF2" stroke-width="2" stroke-miterlimit="10" stroke-linecap="round" stroke-linejoin="round"/>
</g>
</g>
</g>
<g id="Group_3">
<g id="Group_4">
<g id="Group_5">
<g id="Group_6">
<path id="Vector_2" d="M48.084 6.51602C48.084 4.47219 47.8284 3.1948 46.551 1.91741C45.2737 0.640015 43.4853 0.640015 42.8466 0.640015H22.1528C21.5141 0.640015 19.7258 0.640015 18.4484 1.91741C17.171 3.1948 16.9155 4.47219 16.9155 6.51602V57.484C16.9155 59.5278 17.171 60.8052 18.4484 62.0826C19.7258 63.36 21.5141 63.36 22.1528 63.36H42.8466C43.4853 63.36 45.2737 63.36 46.551 62.0826C47.8284 60.8052 48.084 59.5278 48.084 57.484V6.51602Z" stroke="#FCFAF2" stroke-width="2" stroke-miterlimit="10" stroke-linecap="round" stroke-linejoin="round"/>
<path id="Vector_3" d="M39.3978 0.640015C39.2701 0.640015 39.1424 0.767754 39.1424 1.02323C39.1424 1.40645 39.1423 2.68384 38.7591 3.06706C38.5036 3.32254 38.1205 3.45028 37.865 3.45028C37.0986 3.45028 28.1567 3.45028 27.3903 3.45028C27.0071 3.45028 26.7516 3.32254 26.4961 3.06706C26.1129 2.68384 26.1129 1.40645 26.1129 1.02323C26.1129 0.767754 25.9852 0.767754 25.8574 0.640015" stroke="#FCFAF2" stroke-width="2" stroke-miterlimit="10" stroke-linecap="round" stroke-linejoin="round"/>
<path id="Vector_4" d="M38.759 60.8052C37.8648 60.8052 27.007 60.8052 26.1128 60.8052" stroke="#FCFAF2" stroke-width="2" stroke-miterlimit="10" stroke-linecap="round" stroke-linejoin="round"/>
</g>
</g>
</g>
</g>
</g>
<defs>
<clipPath id="clip0_122_238">
<rect width="64" height="64" fill="white" transform="translate(0.5)"/>
</clipPath>
</defs>
</svg>
